<svg xmlns="http://www.w3.org/2000/svg" viewBox="0 0 200 200" class="h-full w-full rounded flex items-center justify-center rotate-0" aria-labelledby="play-channel-P4-Stockholm" width="32" height="32" aria-hidden="true" focusable="false">
    <path stroke-width="0" fill="#cc24b4" d="M0 0h200v200H0z"></path>
    <path d="m165.37 61.5-38.42 55.89H99.8l39.37-55.89h26.2Zm-4.11 45.89h-24.14v31.09h24.14v-31.09ZM94.97 63.12c-2.73-1.22-6.3-1.62-10.86-1.62h-21.1c2.37.29 4.11.65 6.41 1.06 10.25 1.81 16.66 6.45 16.66 21.88s-2.12 19.35-11.15 21.74c-1.8.47-3.9.84-6.3 1.17h14.83c3.23 0 5.98 0 8.58-.68 6.35-1.67 16.16-7 16.16-22.24 0-12.96-6.84-18.47-13.23-21.31ZM60.62 61.5H37.01v77h23.61v-77Z" fill="#fff" stroke-width="0"></path>
</svg>