<svg width="37" height="37" viewBox="0 0 37 37" fill="none" xmlns="http://www.w3.org/2000/svg">
<g clip-path="url(#clip0_4_141)">
<path d="M5.42048 31.5795C3.65354 29.8729 2.24417 27.8316 1.2746 25.5745C0.305033 23.3174 -0.205312 20.8898 -0.226657 18.4334C-0.248003 15.977 0.220078 13.5409 1.15027 11.2674C2.08047 8.99377 3.45415 6.92821 5.19117 5.1912C6.92818 3.45418 8.99374 2.0805 11.2673 1.15031C13.5409 0.220109 15.977 -0.247973 18.4334 -0.226627C20.8898 -0.205281 23.3174 0.305064 25.5745 1.27463C27.8315 2.2442 29.8729 3.65357 31.5795 5.42051C34.9494 8.90965 36.8141 13.5828 36.7719 18.4334C36.7298 23.2841 34.7842 27.9241 31.3541 31.3542C27.9241 34.7842 23.284 36.7298 18.4334 36.772C13.5828 36.8141 8.90962 34.9494 5.42048 31.5795ZM12.95 11.1V25.9H16.65V11.1H12.95ZM20.35 11.1V25.9H24.05V11.1H20.35Z" fill="black"/>
</g>
<defs>
<clipPath id="clip0_4_141">
<rect width="37" height="37" fill="white"/>
</clipPath>
</defs>
</svg>
